<?xml version="1.0" standalone="no"?>
<!DOCTYPE svg PUBLIC "-//W3C//DTD SVG 20010904//EN"
 "http://www.w3.org/TR/2001/REC-SVG-20010904/DTD/svg10.dtd">
<svg version="1.0" xmlns="http://www.w3.org/2000/svg"
 width="208.000000pt" height="208.000000pt" viewBox="0 0 208.000000 208.000000"
 preserveAspectRatio="xMidYMid meet">
<metadata>
Created by potrace 1.14, written by Peter Selinger 2001-2017
</metadata>
<g transform="translate(0.000000,208.000000) scale(0.100000,-0.100000)"
fill="#000000" stroke="none">
<path d="M4 1907 c-2 -7 -3 -111 -2 -232 l3 -220 25 0 25 0 3 203 2 202 224 0
c190 0 225 2 230 15 3 8 3 22 0 30 -5 13 -43 15 -255 15 -193 0 -251 -3 -255
-13z"/>
<path d="M1527 1908 c-2 -7 -2 -21 1 -30 4 -17 23 -18 228 -18 l224 0 1 -27
c0 -16 0 -100 0 -188 0 -88 2 -168 5 -177 6 -20 39 -24 50 -6 9 15 9 432 0
447 -11 17 -503 16 -509 -1z"/>
<path d="M978 1815 c-1 -2 -21 -6 -43 -9 -22 -4 -94 -16 -160 -27 -126 -21
-161 -27 -210 -35 -16 -2 -57 -10 -90 -16 -33 -6 -105 -12 -160 -13 -55 -2
-103 -4 -107 -4 -5 -1 -8 -17 -8 -36 0 -34 4 -38 43 -38 13 0 15 -3 8 -10 -6
-6 -11 -26 -11 -44 l0 -33 68 -1 c37 -1 57 -4 45 -6 -12 -2 -23 -10 -26 -16
-8 -22 12 -57 33 -57 20 0 20 -3 18 -370 l-3 -370 -67 0 -68 0 0 -33 c0 -18 4
-37 10 -43 6 -6 0 -10 -18 -9 -24 0 -27 -4 -30 -38 l-3 -37 813 2 813 3 3 38
c3 32 0 37 -17 37 -18 0 -21 6 -21 40 l0 40 -69 0 c-39 0 -72 4 -75 9 -5 7
-11 580 -7 684 1 25 6 37 16 37 18 0 37 34 29 54 -6 17 -13 18 -128 18 -79 0
-106 -15 -87 -51 7 -11 20 -21 31 -21 19 0 19 -8 15 -272 -2 -150 -4 -315 -4
-365 l-1 -93 -117 0 -118 0 1 328 c2 431 1 412 19 412 18 0 37 34 29 54 -3 8
-20 17 -37 19 -18 2 65 4 183 5 l215 0 15 25 c13 23 13 28 -4 46 -19 20 -18
20 37 16 59 -5 72 2 62 34 -6 19 -36 29 -145 46 -79 13 -97 16 -150 25 -76 13
-97 16 -245 40 -71 11 -141 22 -155 25 -39 7 -118 14 -122 10z m-571 -181 c-3
-3 -12 -4 -19 -1 -8 3 -5 6 6 6 11 1 17 -2 13 -5z m126 -1 c-7 -2 -19 -2 -25
0 -7 3 -2 5 12 5 14 0 19 -2 13 -5z m120 0 c-7 -2 -19 -2 -25 0 -7 3 -2 5 12
5 14 0 19 -2 13 -5z m164 1 c-3 -3 -12 -4 -19 -1 -8 3 -5 6 6 6 11 1 17 -2 13
-5z m-320 -90 c-3 -3 -12 -4 -19 -1 -8 3 -5 6 6 6 11 1 17 -2 13 -5z m219 -9
c-20 -20 -6 -59 23 -63 l21 -3 -5 -351 c-3 -193 -8 -354 -10 -359 -3 -4 3 -12
12 -18 13 -7 -26 -10 -137 -10 -85 0 -147 4 -136 8 17 6 18 18 16 117 -2 123
-3 508 -1 569 1 31 6 42 24 50 28 12 29 46 2 62 -16 10 0 12 93 13 102 0 112
-2 98 -15z m51 9 c-3 -3 -12 -4 -19 -1 -8 3 -5 6 6 6 11 1 17 -2 13 -5z m76
-1 c-7 -2 -19 -2 -25 0 -7 3 -2 5 12 5 14 0 19 -2 13 -5z m279 -10 c-26 -22
-14 -63 18 -63 20 0 20 -1 15 -357 -3 -196 -8 -360 -11 -364 -2 -4 2 -10 8
-12 7 -3 -52 -6 -132 -6 l-145 -1 1 323 c2 442 0 411 26 422 28 13 31 42 6 59
-18 13 -5 14 107 15 123 1 127 1 107 -16z m55 11 c-3 -3 -12 -4 -19 -1 -8 3
-5 6 6 6 11 1 17 -2 13 -5z m70 0 c-3 -3 -12 -4 -19 -1 -8 3 -5 6 6 6 11 1 17
-2 13 -5z"/>
<path d="M7 854 c-12 -12 -8 -452 3 -459 17 -10 492 -7 503 4 5 5 4 17 -2 30
-11 20 -19 21 -209 20 -108 0 -207 0 -219 0 -23 1 -23 2 -25 204 -3 195 -4
202 -23 205 -12 2 -24 0 -28 -4z"/>
<path d="M2022 852 c-9 -6 -12 -56 -11 -201 0 -106 -1 -195 -4 -197 -3 -3
-102 -5 -221 -5 -157 0 -217 -3 -223 -12 -11 -17 -12 -36 -3 -42 16 -10 492
-7 503 4 11 11 13 433 2 451 -7 12 -25 13 -43 2z"/>
<path d="M701 306 c-17 -38 -31 -73 -31 -77 0 -5 -4 -9 -10 -9 -5 0 -10 -4
-10 -10 0 -5 12 -10 27 -10 19 0 24 3 16 11 -21 21 -3 49 32 49 36 0 53 -23
34 -46 -10 -12 1 -14 62 -14 43 0 69 4 61 9 -8 5 -12 24 -11 49 3 49 -2 56
-32 47 -16 -5 -18 -9 -9 -15 13 -8 17 -66 6 -77 -12 -13 -38 10 -52 44 -8 21
-23 56 -33 78 l-18 40 -32 -69z m49 -28 c0 -4 -11 -8 -25 -8 -23 0 -24 2 -13
26 11 24 13 25 25 8 7 -10 13 -21 13 -26z"/>
<path d="M1095 302 c-15 -37 -35 -75 -43 -84 -14 -17 -13 -18 19 -18 23 0 30
3 20 9 -8 5 -11 16 -6 30 9 30 62 29 74 -1 5 -15 4 -26 -3 -30 -6 -4 7 -8 29
-8 33 1 37 3 24 13 -8 7 -28 43 -44 80 -15 37 -31 70 -35 72 -3 2 -19 -26 -35
-63z m45 -19 c0 -7 -9 -13 -20 -13 -23 0 -24 4 -9 32 9 17 13 18 20 7 5 -8 9
-20 9 -26z"/>
<path d="M1238 358 c7 -7 12 -39 12 -73 0 -34 -5 -66 -12 -73 -9 -9 -3 -12 28
-12 28 0 35 3 24 10 -15 10 -22 58 -9 66 5 2 20 -13 35 -36 19 -28 34 -40 51
-40 23 0 23 1 -12 37 l-35 36 20 22 c40 43 13 75 -63 75 -40 0 -48 -3 -39 -12z
m79 -10 c19 -26 0 -57 -34 -58 -9 0 -12 45 -4 68 3 7 30 0 38 -10z"/>
<path d="M932 329 c-7 -10 -21 -19 -32 -19 -11 0 -20 -5 -20 -11 0 -7 10 -9
25 -5 24 6 25 4 25 -39 0 -48 20 -69 43 -46 9 10 9 12 -3 9 -21 -5 -23 69 -1
82 14 8 14 9 -3 10 -12 0 -16 5 -13 15 9 22 -8 26 -21 4z"/>
</g>
</svg>
